<?xml version="1.0" encoding="UTF-8" standalone="no"?>
<!DOCTYPE svg PUBLIC "-//W3C//DTD SVG 1.1//EN"
 "http://www.w3.org/Graphics/SVG/1.1/DTD/svg11.dtd">
<!-- Generated by graphviz version 2.40.1 (20161225.0304)
 -->
<!-- Title: compactRelationshipsDiagram Pages: 1 -->
<svg width="269pt" height="78pt"
 viewBox="0.00 0.00 268.80 78.20" xmlns="http://www.w3.org/2000/svg" xmlns:xlink="http://www.w3.org/1999/xlink">
<g id="graph0" class="graph" transform="scale(1 1) rotate(0) translate(4 74.2)">
<title>compactRelationshipsDiagram</title>
<polygon fill="#ffffff" stroke="transparent" points="-4,4 -4,-74.2 264.8032,-74.2 264.8032,4 -4,4"/>
<text text-anchor="middle" x="72.4936" y="-7.3" font-family="Helvetica,sans-Serif" font-size="11.00" fill="#000000">Generated by SchemaSpy</text>
<!-- combination -->
<g id="node1" class="node">
<title>combination</title>
<g id="a_node1"><a xlink:href="tables/combination.html" xlink:title="combination">
<text text-anchor="middle" x="136.1582" y="-48.9" font-family="Helvetica,sans-Serif" font-size="11.00" fill="#000000">combination</text>
</a>
</g>
</g>
<!-- conditions -->
<g id="node2" class="node">
<title>conditions</title>
<g id="a_node2"><a xlink:href="tables/conditions.html" xlink:title="conditions">
<text text-anchor="middle" x="32.7566" y="-48.9" font-family="Helvetica,sans-Serif" font-size="11.00" fill="#000000">conditions</text>
</a>
</g>
</g>
<!-- combination&#45;&gt;conditions -->
<g id="edge1" class="edge">
<title>combination:w&#45;&gt;conditions:e</title>
<path fill="none" stroke="#000000" d="M83.5924,-52.2C77.4481,-52.2 71.3201,-52.2 65.5556,-52.2"/>
<polygon fill="#000000" stroke="#000000" points="90.2424,-52.2001 98.2424,-55.8 94.2424,-52.2 98.2424,-52.2 98.2424,-52.2 98.2424,-52.2 94.2424,-52.2 98.2424,-48.6 90.2424,-52.2001 90.2424,-52.2001"/>
<ellipse fill="none" stroke="#000000" cx="87.0424" cy="-52.2001" rx="3.2" ry="3.2"/>
</g>
<!-- doses -->
<g id="node3" class="node">
<title>doses</title>
<g id="a_node3"><a xlink:href="tables/doses.html" xlink:title="doses">
<text text-anchor="middle" x="233.8032" y="-48.9" font-family="Helvetica,sans-Serif" font-size="11.00" fill="#000000">doses</text>
</a>
</g>
</g>
<!-- doses&#45;&gt;combination -->
<g id="edge2" class="edge">
<title>doses:w&#45;&gt;combination:e</title>
<path fill="none" stroke="#000000" d="M191.9615,-52.2C186.0473,-52.2 179.9936,-52.2 174.1571,-52.2"/>
<polygon fill="#000000" stroke="#000000" points="198.6036,-52.2001 206.6036,-55.8 202.6036,-52.2 206.6036,-52.2 206.6036,-52.2 206.6036,-52.2 202.6036,-52.2 206.6036,-48.6 198.6036,-52.2001 198.6036,-52.2001"/>
<ellipse fill="none" stroke="#000000" cx="195.4036" cy="-52.2001" rx="3.2" ry="3.2"/>
</g>
</g>
</svg>
